<svg width="1200" height="460" viewBox="0 0 1200 460" fill="none" xmlns="http://www.w3.org/2000/svg">
  <rect width="1200" height="460" fill="#F7F7F4"/>

  <g opacity="0.2" stroke="#1C1C1C" stroke-width="1">
    <line x1="0" y1="72.5" x2="1200" y2="72.5"/>
    <line x1="0" y1="144.5" x2="1200" y2="144.5"/>
    <line x1="0" y1="216.5" x2="1200" y2="216.5"/>
    <line x1="0" y1="288.5" x2="1200" y2="288.5"/>
    <line x1="0" y1="360.5" x2="1200" y2="360.5"/>
    <line x1="120.5" y1="0" x2="120.5" y2="460"/>
    <line x1="360.5" y1="0" x2="360.5" y2="460"/>
    <line x1="600.5" y1="0" x2="600.5" y2="460"/>
    <line x1="840.5" y1="0" x2="840.5" y2="460"/>
    <line x1="1080.5" y1="0" x2="1080.5" y2="460"/>
  </g>

  <g opacity="0.12" stroke="#2244FF" stroke-width="2">
    <path d="M37 411L224 182L412 368L612 94L858 302L1117 49"/>
    <path d="M64 432L238 221L452 133L630 312L882 120L1096 294"/>
  </g>

  <rect x="0" y="0" width="208" height="62" fill="#111111"/>
  <rect x="208" y="0" width="214" height="62" fill="#F7F7F4"/>
  <rect x="422" y="0" width="154" height="62" fill="#D9D9D2"/>
  <rect x="576" y="0" width="164" height="62" fill="#2244FF"/>
  <rect x="740" y="0" width="192" height="62" fill="#111111"/>
  <rect x="932" y="0" width="268" height="62" fill="#2244FF"/>

  <path d="M43 341L270 72H471L196 420L43 341Z" fill="#0E3BFF" fill-opacity="0.9"/>
  <path d="M181 353L410 111L536 144L322 385L181 353Z" fill="#46A8FF" fill-opacity="0.72"/>
  <path d="M378 268L572 64H788L571 322L378 268Z" fill="#1B1B1B"/>
  <path d="M623 356L825 123L1002 197L800 417L623 356Z" fill="#3366FF" fill-opacity="0.88"/>
  <path d="M885 337L1086 88L1184 88L1002 389L885 337Z" fill="#86D7FF" fill-opacity="0.82"/>

  <g opacity="0.22" fill="#F7F7F4">
    <rect x="82" y="140" width="78" height="78" transform="rotate(-12 82 140)"/>
    <rect x="284" y="224" width="102" height="102" transform="rotate(15 284 224)"/>
    <rect x="718" y="68" width="120" height="120" transform="rotate(-8 718 68)"/>
    <rect x="918" y="238" width="78" height="78" transform="rotate(18 918 238)"/>
  </g>

  <g opacity="0.28" stroke="#111111" stroke-width="2">
    <rect x="66" y="92" width="126" height="126" transform="rotate(8 66 92)"/>
    <rect x="532" y="291" width="164" height="86" transform="rotate(-7 532 291)"/>
    <rect x="852" y="78" width="144" height="144" transform="rotate(12 852 78)"/>
  </g>

  <circle cx="180" cy="92" r="13" fill="#111111"/>
  <circle cx="210" cy="108" r="8" fill="#F7F7F4" stroke="#111111" stroke-width="2"/>
  <circle cx="714" cy="336" r="18" fill="#111111"/>
  <circle cx="758" cy="326" r="10" fill="#F7F7F4" stroke="#111111" stroke-width="2"/>
  <circle cx="984" cy="270" r="24" fill="#111111"/>
  <circle cx="1032" cy="288" r="12" fill="#F7F7F4" stroke="#111111" stroke-width="2"/>

  <rect x="55" y="322" width="310" height="96" fill="#F7F7F4" fill-opacity="0.92"/>
  <rect x="55.75" y="322.75" width="308.5" height="94.5" stroke="#111111" stroke-width="1.5"/>
  <text x="75" y="350" fill="#111111" font-family="'Courier New', monospace" font-size="16" letter-spacing="1.6">PROFILE / SIGNAL / 2026</text>
  <text x="75" y="377" fill="#111111" font-family="'Courier New', monospace" font-size="14">ID.............kevin258258</text>
  <text x="75" y="399" fill="#111111" font-family="'Courier New', monospace" font-size="14">ALIAS..........hollow-stone</text>

  <rect x="743" y="293" width="394" height="103" fill="#111111"/>
  <text x="770" y="332" fill="#F7F7F4" font-family="Georgia, 'Times New Roman', serif" font-size="56" font-style="italic">#258</text>
  <text x="911" y="331" fill="#86D7FF" font-family="Georgia, 'Times New Roman', serif" font-size="38" font-style="italic">planar archive</text>
  <text x="770" y="362" fill="#F7F7F4" font-family="'Courier New', monospace" font-size="16" letter-spacing="1.4">MACHINE LEARNING / MATHEMATICS / SYSTEMS</text>
  <text x="770" y="384" fill="#86D7FF" font-family="'Courier New', monospace" font-size="14" letter-spacing="1.2">NOTES  EXPERIMENTS  STRUCTURES  QUIET TOOLS</text>

  <g opacity="0.22">
    <text x="34" y="242" fill="#111111" font-family="Arial, Helvetica, sans-serif" font-size="124" font-weight="700">K</text>
    <text x="117" y="242" fill="#111111" font-family="Arial, Helvetica, sans-serif" font-size="124" font-weight="700">E</text>
    <text x="200" y="242" fill="#111111" font-family="Arial, Helvetica, sans-serif" font-size="124" font-weight="700">V</text>
    <text x="293" y="242" fill="#111111" font-family="Arial, Helvetica, sans-serif" font-size="124" font-weight="700">I</text>
    <text x="339" y="242" fill="#111111" font-family="Arial, Helvetica, sans-serif" font-size="124" font-weight="700">N</text>
  </g>

  <text x="1004" y="451" fill="#111111" font-family="'Courier New', monospace" font-size="14" letter-spacing="1.6">tensorfieldx.space</text>
</svg>
